<svg width="46" height="46" viewBox="0 0 46 46" fill="none" xmlns="http://www.w3.org/2000/svg">
<path d="M28.3611 17.7971C28.1364 17.7971 27.9536 17.98 27.9536 18.2046C27.9536 18.4293 28.1364 18.6122 28.3611 18.6122C28.5858 18.6122 28.7687 18.4294 28.7687 18.2046C28.7687 17.9799 28.5858 17.7971 28.3611 17.7971ZM23.4815 19.4713C21.4894 19.4713 19.8687 21.0921 19.8687 23.0842C19.8687 25.0763 21.4894 26.6971 23.4815 26.6971C25.4737 26.6971 27.0945 25.0764 27.0945 23.0842C27.0945 21.0921 25.4737 19.4713 23.4815 19.4713Z" fill="white"/>
<path d="M28.4542 12.0122H18.4032C15.0399 12.0122 12.3037 14.7484 12.3037 18.1117V28.1627C12.3037 31.526 15.0399 34.2622 18.4032 34.2622H28.4542C31.8175 34.2622 34.5537 31.526 34.5537 28.1627V18.1117C34.5537 14.7484 31.8175 12.0122 28.4542 12.0122ZM23.4287 29.24C20.0636 29.24 17.326 26.5023 17.326 23.1372C17.326 19.7721 20.0637 17.0345 23.4287 17.0345C26.7938 17.0345 29.5315 19.7722 29.5315 23.1372C29.5315 26.5023 26.7938 29.24 23.4287 29.24ZM29.8965 18.5236C28.8741 18.5236 28.0423 17.6919 28.0423 16.6695C28.0423 15.6471 28.8741 14.8153 29.8965 14.8153C30.9188 14.8153 31.7506 15.6471 31.7506 16.6695C31.7506 17.6918 30.9188 18.5236 29.8965 18.5236Z" fill="white"/>
<rect x="1.42871" y="1.13721" width="44" height="44" rx="22"/>
</svg>
