<svg width="45" height="45" viewBox="0 0 45 45" fill="none" xmlns="http://www.w3.org/2000/svg">
<path d="M27.4324 17.1602C27.2077 17.1602 27.0249 17.343 27.0249 17.5677C27.0249 17.7924 27.2077 17.9752 27.4324 17.9752C27.6571 17.9752 27.8399 17.7924 27.8399 17.5677C27.8399 17.343 27.6571 17.1602 27.4324 17.1602ZM22.5528 18.8344C20.5607 18.8344 18.9399 20.4551 18.9399 22.4472C18.9399 24.4394 20.5607 26.0602 22.5528 26.0602C24.545 26.0602 26.1658 24.4394 26.1658 22.4473C26.1658 20.4551 24.545 18.8344 22.5528 18.8344Z" fill="#060643"/>
<path d="M27.5255 11.375H17.4745C14.1112 11.375 11.375 14.1112 11.375 17.4745V27.5255C11.375 30.8888 14.1112 33.625 17.4745 33.625H27.5255C30.8888 33.625 33.625 30.8888 33.625 27.5255V17.4745C33.625 14.1112 30.8888 11.375 27.5255 11.375ZM22.5 28.6028C19.1349 28.6028 16.3973 25.8651 16.3973 22.5C16.3973 19.1349 19.1349 16.3973 22.5 16.3973C25.8651 16.3973 28.6028 19.1349 28.6028 22.5C28.6028 25.8651 25.8651 28.6028 22.5 28.6028ZM28.9678 17.8864C27.9454 17.8864 27.1136 17.0547 27.1136 16.0323C27.1136 15.0099 27.9454 14.1781 28.9678 14.1781C29.9901 14.1781 30.8219 15.0099 30.8219 16.0322C30.8219 17.0546 29.9901 17.8864 28.9678 17.8864Z" fill="#060643"/>
<rect x="0.5" y="0.5" width="44" height="44" rx="22" stroke="#060643"/>
</svg>
