<svg width="46" height="46" viewBox="0 0 46 46" fill="none" xmlns="http://www.w3.org/2000/svg">
<path fill-rule="evenodd" clip-rule="evenodd" d="M35.8323 16.433C36.0122 15.8281 35.8323 15.3828 34.9711 15.3828H32.1274C31.4038 15.3828 31.0701 15.7672 30.8892 16.1915C30.8892 16.1915 29.443 19.7319 27.3944 22.0316C26.7315 22.6985 26.4303 22.9101 26.0685 22.9101C25.8876 22.9101 25.6156 22.6985 25.6156 22.0926V16.433C25.6156 15.7063 25.4163 15.3828 24.814 15.3828H20.3421C19.8903 15.3828 19.6184 15.7196 19.6184 16.0397C19.6184 16.7276 20.6432 16.8872 20.7483 18.8235V23.0309C20.7483 23.9536 20.5826 24.1209 20.2208 24.1209C19.2566 24.1209 16.9112 20.5638 15.5192 16.4939C15.2494 15.7018 14.9764 15.3828 14.2495 15.3828H11.4037C10.5912 15.3828 10.4287 15.7672 10.4287 16.1915C10.4287 16.947 11.3929 20.7001 14.919 25.664C17.2698 29.0538 20.5793 30.8916 23.5942 30.8916C25.4022 30.8916 25.6254 30.4839 25.6254 29.7805V27.2182C25.6254 26.4018 25.7966 26.239 26.3696 26.239C26.7921 26.239 27.5147 26.4516 29.2025 28.0856C31.1308 30.0231 31.4482 30.8916 32.5337 30.8916H35.3774C36.1898 30.8916 36.5972 30.4839 36.3632 29.6775C36.1053 28.8754 35.1845 27.7112 33.9636 26.3298C33.3006 25.5433 32.3062 24.6958 32.0039 24.2716C31.5825 23.7276 31.7028 23.485 32.0039 23.0009C32.0039 23.0009 35.4705 18.098 35.8313 16.433H35.8323Z" fill="white"/>
<rect x="1.42871" y="1.13721" width="44" height="44" rx="22" stroke="white"/>
</svg>
