<svg width="45" height="45" viewBox="0 0 45 45" fill="none" xmlns="http://www.w3.org/2000/svg">
<path d="M22.503 10.5H22.497C15.8805 10.5 10.5 15.882 10.5 22.5C10.5 25.125 11.346 27.558 12.7845 29.5335L11.289 33.9915L15.9015 32.517C17.799 33.774 20.0625 34.5 22.503 34.5C29.1195 34.5 34.5 29.1165 34.5 22.5C34.5 15.8835 29.1195 10.5 22.503 10.5ZM29.4855 27.4455C29.196 28.263 28.047 28.941 27.1305 29.139C26.5035 29.2725 25.6845 29.379 22.9275 28.236C19.401 26.775 17.13 23.1915 16.953 22.959C16.7835 22.7265 15.528 21.0615 15.528 19.3395C15.528 17.6175 16.4025 16.779 16.755 16.419C17.0445 16.1235 17.523 15.9885 17.982 15.9885C18.1305 15.9885 18.264 15.996 18.384 16.002C18.7365 16.017 18.9135 16.038 19.146 16.5945C19.4355 17.292 20.1405 19.014 20.2245 19.191C20.31 19.368 20.3955 19.608 20.2755 19.8405C20.163 20.0805 20.064 20.187 19.887 20.391C19.71 20.595 19.542 20.751 19.365 20.97C19.203 21.1605 19.02 21.3645 19.224 21.717C19.428 22.062 20.133 23.2125 21.171 24.1365C22.5105 25.329 23.5965 25.71 23.985 25.872C24.2745 25.992 24.6195 25.9635 24.831 25.7385C25.0995 25.449 25.431 24.969 25.7685 24.4965C26.0085 24.1575 26.3115 24.1155 26.6295 24.2355C26.9535 24.348 28.668 25.1955 29.0205 25.371C29.373 25.548 29.6055 25.632 29.691 25.7805C29.775 25.929 29.775 26.6265 29.4855 27.4455Z" fill="#060643"/>
<rect x="0.5" y="0.5" width="44" height="44" rx="22" stroke="#060643"/>
</svg>
