<svg width="46" height="46" viewBox="0 0 46 46" fill="none" xmlns="http://www.w3.org/2000/svg">
<path d="M23.4317 11.1372H23.4257C16.8092 11.1372 11.4287 16.5192 11.4287 23.1372C11.4287 25.7622 12.2747 28.1952 13.7132 30.1707L12.2177 34.6287L16.8302 33.1542C18.7277 34.4112 20.9912 35.1372 23.4317 35.1372C30.0482 35.1372 35.4287 29.7537 35.4287 23.1372C35.4287 16.5207 30.0482 11.1372 23.4317 11.1372ZM30.4142 28.0827C30.1247 28.9002 28.9757 29.5782 28.0592 29.7762C27.4322 29.9097 26.6132 30.0162 23.8562 28.8732C20.3297 27.4122 18.0587 23.8287 17.8817 23.5962C17.7122 23.3637 16.4567 21.6987 16.4567 19.9767C16.4567 18.2547 17.3312 17.4162 17.6837 17.0562C17.9732 16.7607 18.4517 16.6257 18.9107 16.6257C19.0592 16.6257 19.1927 16.6332 19.3127 16.6392C19.6652 16.6542 19.8422 16.6752 20.0747 17.2317C20.3642 17.9292 21.0692 19.6512 21.1532 19.8282C21.2387 20.0052 21.3242 20.2452 21.2042 20.4777C21.0917 20.7177 20.9927 20.8242 20.8157 21.0282C20.6387 21.2322 20.4707 21.3882 20.2937 21.6072C20.1317 21.7977 19.9487 22.0017 20.1527 22.3542C20.3567 22.6992 21.0617 23.8497 22.0997 24.7737C23.4392 25.9662 24.5252 26.3472 24.9137 26.5092C25.2032 26.6292 25.5482 26.6007 25.7597 26.3757C26.0282 26.0862 26.3597 25.6062 26.6972 25.1337C26.9372 24.7947 27.2402 24.7527 27.5582 24.8727C27.8822 24.9852 29.5967 25.8327 29.9492 26.0082C30.3017 26.1852 30.5342 26.2692 30.6197 26.4177C30.7037 26.5662 30.7037 27.2637 30.4142 28.0827Z" fill="white"/>
<rect x="1.42871" y="1.13721" width="44" height="44" rx="22" stroke="white"/>
</svg>
