<svg width="47" height="47" viewBox="0 0 47 47" xmlns="http://www.w3.org/2000/svg">
<path d="M13.7088 41.1248V22.7165C13.7088 21.6196 13.7088 21.0713 13.9223 20.6524C14.11 20.2838 14.4096 19.9842 14.7781 19.7966C15.197 19.5831 15.7454 19.5831 16.8422 19.5831H30.1588C31.2557 19.5831 31.804 19.5831 32.2229 19.7966C32.5915 19.9842 32.8909 20.2838 33.0787 20.6524C33.2922 21.0713 33.2922 21.6196 33.2922 22.7165V41.1248M19.5838 27.4165H27.4172M19.5838 35.2498H27.4172M5.87549 20.539V37.9915C5.87549 39.0881 5.87549 39.6365 6.08893 40.0556C6.27669 40.4239 6.57628 40.7236 6.94476 40.9114C7.36367 41.1248 7.91206 41.1248 9.00882 41.1248H37.9922C39.089 41.1248 39.6374 41.1248 40.0562 40.9114C40.4248 40.7236 40.7242 40.4239 40.912 40.0556C41.1255 39.6365 41.1255 39.0881 41.1255 37.9915V20.539C41.1255 18.4363 41.1255 17.3849 40.8059 16.456C40.5233 15.6346 40.0621 14.886 39.4554 14.2643C38.7696 13.5612 37.8304 13.0885 35.9522 12.1429L27.7272 8.00244C26.1777 7.22252 25.4032 6.83253 24.5901 6.67908C23.87 6.54317 23.131 6.54317 22.4109 6.67908C21.5978 6.83253 20.8233 7.2225 19.2738 8.00244L11.0488 12.1429C9.17058 13.0885 8.23144 13.5612 7.54546 14.2643C6.93882 14.886 6.4776 15.6346 6.19503 16.456C5.87549 17.3849 5.87549 18.4363 5.87549 20.539Z" stroke="#DADADA" stroke-width="2" stroke-linecap="round" stroke-linejoin="round"/>
</svg>
