<svg width="39" height="39" viewBox="0 0 39 39"xmlns="http://www.w3.org/2000/svg">
<g clip-path="url(#clip0_146_979)">
<path d="M37.0238 1.63076C36.9119 1.02641 36.3848 0.587891 35.7701 0.587891C35.271 0.587891 4.13046 0.587891 3.23194 0.587891C2.61731 0.587891 2.09012 1.02641 1.9783 1.63076C1.9783 1.63076 0.0285317 12.4158 0.0285317 12.4159C0.0144399 12.4921 0.0300552 12.1518 0.0198481 12.2164C-0.00947802 12.4028 0.0010337 13.4935 0.00270948 37.137C0.00270948 37.8411 0.573542 38.412 1.27767 38.412H37.7243C38.4284 38.412 38.9993 37.8411 38.9993 37.137V12.4159C38.9994 12.2271 39.0641 12.6489 37.0238 1.63076ZM24.7333 3.1379H34.7095L36.1916 11.1409H24.7333V3.1379ZM16.8186 3.1379H22.1833V11.1409H16.8186V3.1379ZM16.8187 13.6908H22.1833V22.2803C21.9983 22.3405 21.8244 22.4441 21.6773 22.5912L21.0766 23.192L20.4758 22.5912C19.9779 22.0933 19.1707 22.0933 18.6727 22.5912L18.072 23.192L17.4712 22.5912C17.2859 22.4059 17.0577 22.2896 16.8186 22.2422V13.6908H16.8187ZM4.29248 3.1379H14.2687V11.1409H2.8104L4.29248 3.1379ZM2.55272 35.8621V13.6908H14.2687V24.5187C14.2687 25.0344 14.5793 25.4994 15.0558 25.6967C15.5323 25.8939 16.0806 25.7849 16.4452 25.4202L16.5697 25.2958L17.1705 25.8965C17.4194 26.1455 17.7457 26.27 18.072 26.27C18.3983 26.27 18.7246 26.1455 18.9735 25.8965L19.5742 25.2958L20.175 25.8965C20.6729 26.3945 21.4801 26.3945 21.9781 25.8965L22.5791 25.2955C22.9435 25.6426 23.4794 25.7434 23.9462 25.5501C24.4226 25.3527 24.7333 24.8878 24.7333 24.3722V13.6908H36.4493V35.8621H2.55272Z"/>
</g>
<defs>
<clipPath id="clip0_146_979">
<rect width="39" height="39" transform="translate(-0.000488281)"/>
</clipPath>
</defs>
</svg>
