<svg width="37" height="37" viewBox="0 0 37 37" xmlns="http://www.w3.org/2000/svg">
<path d="M3.36193 2.70903L1.7293 9.24108C1.49715 10.1564 1.4783 11.1128 1.67423 12.0366C1.87016 12.9604 2.27562 13.8268 2.85935 14.5691C3.00487 14.7317 3.15927 14.8861 3.32185 15.0316L3.32184 33.917C3.32184 34.3259 3.48427 34.718 3.77339 35.0071C4.06251 35.2962 4.45464 35.4587 4.86351 35.4587L22.0454 35.4587C22.4543 35.4587 22.8464 35.2962 23.1355 35.0071C23.4246 34.718 23.5871 34.3259 23.5871 33.917C23.5871 33.5081 23.4246 33.116 23.1355 32.8269C22.8464 32.5378 22.4543 32.3753 22.0454 32.3753L6.39901 32.3753L6.39901 16.8045C7.49292 17.0553 8.63482 16.9993 9.69894 16.6427C10.7631 16.2861 11.7081 15.6427 12.43 14.7834C12.4763 14.8373 12.5086 14.9005 12.5564 14.953C13.1388 15.5844 13.8456 16.0886 14.6322 16.4338C15.4189 16.7789 16.2684 16.9576 17.1275 16.9587L17.2554 16.9587C18.1141 16.9578 18.9634 16.7793 19.7498 16.4344C20.5361 16.0895 21.2427 15.5856 21.8249 14.9545C21.8727 14.9021 21.9051 14.8373 21.9513 14.7834C22.6731 15.6428 23.6182 16.2863 24.6823 16.6429C25.7465 16.9995 26.8884 17.0555 27.9823 16.8045L27.9823 20.042C27.9823 20.4509 28.1448 20.843 28.4339 21.1321C28.723 21.4212 29.1151 21.5837 29.524 21.5837C29.9329 21.5837 30.325 21.4212 30.6141 21.1321C30.9033 20.843 31.0657 20.4509 31.0657 20.042L31.0657 15.0347C31.2283 14.8891 31.3827 14.7347 31.5282 14.5722C32.1119 13.8299 32.5174 12.9634 32.7133 12.0397C32.9092 11.1159 32.8904 10.1595 32.6582 9.24416L31.0194 2.70903C30.9359 2.37565 30.7434 2.07974 30.4725 1.86829C30.2015 1.65685 29.8677 1.542 29.524 1.54199L4.85735 1.54199C4.51366 1.542 4.17984 1.65685 3.9089 1.86829C3.63796 2.07974 3.44544 2.37565 3.36193 2.70903ZM28.32 4.62533L29.6612 9.98879C29.7768 10.4499 29.7857 10.9313 29.6872 11.3964C29.5887 11.8615 29.3855 12.298 29.093 12.6727C28.8005 13.0474 28.4263 13.3505 27.9991 13.5589C27.5718 13.7673 27.1026 13.8755 26.6272 13.8753C25.8439 13.8711 25.0904 13.5749 24.5139 13.0446C23.9374 12.5143 23.5794 11.788 23.51 11.0078L22.9781 4.62533L28.32 4.62533ZM14.4912 4.62533L19.8871 4.62533L20.3758 10.4837C20.4118 10.9153 20.3579 11.3497 20.2174 11.7595C20.077 12.1692 19.8531 12.5454 19.5598 12.8642C19.2665 13.1829 18.9103 13.4374 18.5137 13.6114C18.117 13.7855 17.6886 13.8753 17.2554 13.8753L17.1275 13.8753C16.6954 13.8755 16.2679 13.7861 15.8721 13.6127C15.4763 13.4394 15.1207 13.1858 14.8278 12.8682C14.5349 12.5505 14.311 12.1755 14.1703 11.767C14.0296 11.3584 13.9751 10.9251 14.0102 10.4945L14.4912 4.62533ZM11.4079 4.62533L11.3894 4.83191L10.9392 10.2277L10.876 10.9986C10.8087 11.781 10.4512 12.5099 9.87387 13.0422C9.2965 13.5745 8.54096 13.8717 7.75568 13.8753C7.28026 13.8755 6.81107 13.7672 6.38375 13.5588C5.95643 13.3504 5.58224 13.0474 5.2896 12.6727C4.99696 12.298 4.79357 11.8616 4.6949 11.3965C4.59622 10.9315 4.60486 10.45 4.72014 9.98878L6.06139 4.62533L11.4079 4.62533ZM35.3423 28.3978C34.7564 31.4257 30.0621 34.045 30.0621 34.045C30.0621 34.045 25.3677 31.4241 24.7818 28.3978C24.2022 25.4085 25.9057 23.853 27.6648 23.853C28.1347 23.8232 28.6041 23.9185 29.0253 24.1292C29.4464 24.3399 29.8041 24.6585 30.0621 25.0524C30.32 24.6585 30.6777 24.3399 31.0988 24.1292C31.52 23.9185 31.9894 23.8232 32.4593 23.853C34.2246 23.853 35.9204 25.4085 35.3423 28.3978Z"/>
</svg>
