<svg width="42" height="42" viewBox="0 0 42 42" xmlns="http://www.w3.org/2000/svg">
<g clip-path="url(#clip0_146_985)">
<path d="M39.9034 15.999C39.9034 15.999 30.9622 15.9863 28.3504 15.9863C25.3439 15.9863 22.3065 17.9687 21.666 18.4105L12.75 23.55C11.2449 24.418 10.727 26.3479 11.5942 27.8523C12.1549 28.8252 13.2008 29.4294 14.3243 29.4294C14.8283 29.4294 15.326 29.3076 15.7733 29.0759C16.4565 28.7736 21.7234 26.4432 23.5329 25.7747C24.2792 25.4989 25.0953 25.3119 25.7463 25.2623C25.5482 25.4688 25.2409 25.7453 24.7656 26.0855L24.0866 26.5762C18.4803 30.6461 16.4418 31.5008 15.7194 31.5008H3.15005C1.41334 31.5008 0 32.9142 0 34.6509C0 36.3876 1.41334 37.8009 3.15005 37.8009H11.9443H15.7831C18.9234 37.8009 23.1753 35.143 27.2871 32.5725C29.446 31.2229 32.7088 29.1837 33.6684 29.1382H39.9C41.0599 29.1382 42 28.1981 42 27.0382V18.099C42.0007 16.9404 41.062 16.0011 39.9034 15.999ZM39.9006 27.0382C39.9006 27.0382 36.9207 27.0382 33.6621 27.0382C30.4036 27.0382 20.4424 35.7008 15.7831 35.7008C12.4504 35.7008 11.9443 35.7008 11.9443 35.7008H3.15005C2.57041 35.7008 2.10003 35.2304 2.10003 34.6508C2.10003 34.0705 2.57041 33.6008 3.15005 33.6008C3.15005 33.6008 13.2155 33.6008 15.7194 33.6008C18.2234 33.6008 23.9767 29.2327 25.9878 27.7928C27.9989 26.3521 28.5471 25.1019 27.9898 23.9315C27.7238 23.3722 26.9881 23.1489 26.0725 23.1489C25.0714 23.1489 23.8556 23.4163 22.8048 23.8048C20.7923 24.5482 14.8478 27.1894 14.8478 27.1894C14.6826 27.2847 14.502 27.3301 14.3242 27.3301C13.9609 27.3301 13.608 27.1419 13.4135 26.8044C13.1236 26.3018 13.2966 25.6598 13.7984 25.37L22.7943 20.1843C22.7943 20.1843 25.7385 18.0864 28.3503 18.0864C30.962 18.0864 39.9005 18.0991 39.9005 18.0991V27.0382H39.9006Z"/>
<path d="M10.2908 4.59709C9.89314 4.0679 9.00694 4.0679 8.60933 4.59709C8.05135 5.34121 3.1499 11.985 3.1499 15.7266C3.1499 19.2008 5.97584 22.0267 9.45 22.0267C12.9242 22.0267 15.7501 19.2008 15.7501 15.7266C15.7501 11.985 10.8487 5.34121 10.2908 4.59709ZM9.45 19.9273C7.13439 19.9273 5.24993 18.0436 5.24993 15.7273C5.24993 13.567 7.79729 9.42159 9.45 7.0296C11.1027 9.4215 13.6501 13.5677 13.6501 15.7273C13.6501 18.0436 11.7656 19.9273 9.45 19.9273Z"/>
</g>
<defs>
<clipPath id="clip0_146_985">
<rect width="42" height="42"/>
</clipPath>
</defs>
</svg>
