<svg width="49" height="49" viewBox="0 0 49 49" xmlns="http://www.w3.org/2000/svg">
<g clip-path="url(#clip0_146_994)">
<path d="M28.2586 15.5762C28.2586 16.645 28.8285 17.5622 29.5977 18.1367C31.8221 19.7982 33 22.1061 33 24.4244L33 47.6801C33 47.7524 32.9724 47.8199 32.9089 47.8786C32.8444 47.9381 32.7268 48 32.5459 48L13.5804 48C13.3905 48 13.2206 47.9311 13.1113 47.8411C13.0028 47.7519 13 47.6874 13 47.6801L13 24.4244C13 22.0137 14.3058 19.6612 16.439 18.0195C17.1882 17.4429 17.7414 16.5366 17.7414 15.4838L17.7414 13.6387L17.7414 1.31987C17.7414 1.31258 17.7442 1.2481 17.8527 1.15888C17.962 1.06893 18.1319 1 18.3218 1L27.8045 1C27.9855 1 28.1031 1.06191 28.1675 1.12143C28.2311 1.18006 28.2586 1.24764 28.2586 1.31987L28.2586 13.6387L28.2586 15.5762ZM25.1496 6.14954C25.1496 4.96238 24.1872 4 23.0001 4C21.8129 4 20.8505 4.96238 20.8505 6.14954L20.8505 8.85046C20.8505 10.0376 21.8129 11 23.0001 11C24.1872 11 25.1496 10.0376 25.1496 8.85046L25.1496 6.14954ZM18.7414 26.0572C17.0845 26.0572 15.7414 27.4004 15.7414 29.0572L15.7414 38.7508C15.7414 40.4077 17.0845 41.7508 18.7414 41.7508L27.2586 41.7508C28.9155 41.7508 30.2586 40.4077 30.2586 38.7508L30.2586 29.0572C30.2586 27.4004 28.9155 26.0572 27.2586 26.0572L18.7414 26.0572Z" stroke="#DADADA" stroke-width="2"/>
<path d="M18 35.9344V33.0656H18.7114V35.1844H19.664V35.9344H18Z"/>
<path d="M20.9403 36C20.7675 36 20.6078 35.9631 20.4611 35.8893C20.3164 35.8156 20.1908 35.7117 20.0842 35.5779C19.9777 35.4413 19.8943 35.2814 19.834 35.0984C19.7758 34.9153 19.7466 34.7158 19.7466 34.5C19.7466 34.2814 19.7758 34.082 19.834 33.9016C19.8943 33.7186 19.9777 33.5601 20.0842 33.4262C20.1908 33.2896 20.3164 33.1844 20.4611 33.1107C20.6078 33.0369 20.7665 33 20.9373 33C21.1102 33 21.2689 33.0369 21.4136 33.1107C21.5583 33.1844 21.6839 33.2896 21.7904 33.4262C21.8969 33.5601 21.9793 33.7186 22.0376 33.9016C22.0979 34.082 22.128 34.2814 22.128 34.5C22.128 34.7158 22.0979 34.9153 22.0376 35.0984C21.9793 35.2814 21.8969 35.4413 21.7904 35.5779C21.6839 35.7117 21.5583 35.8156 21.4136 35.8893C21.2689 35.9631 21.1112 36 20.9403 36ZM20.9373 35.2172C21.0037 35.2172 21.0649 35.2008 21.1212 35.168C21.1795 35.1352 21.2297 35.0888 21.2719 35.0287C21.3161 34.9658 21.3503 34.8907 21.3744 34.8033C21.3985 34.7131 21.4106 34.612 21.4106 34.5C21.4106 34.388 21.3985 34.2883 21.3744 34.2008C21.3503 34.1107 21.3161 34.0355 21.2719 33.9754C21.2297 33.9126 21.1795 33.8648 21.1212 33.832C21.0649 33.7992 21.0037 33.7828 20.9373 33.7828C20.871 33.7828 20.8087 33.7992 20.7504 33.832C20.6942 33.8648 20.6439 33.9126 20.5997 33.9754C20.5575 34.0355 20.5244 34.1107 20.5002 34.2008C20.4761 34.2883 20.4641 34.388 20.4641 34.5C20.4641 34.612 20.4761 34.7131 20.5002 34.8033C20.5244 34.8907 20.5575 34.9658 20.5997 35.0287C20.6439 35.0888 20.6942 35.1352 20.7504 35.168C20.8087 35.2008 20.871 35.2172 20.9373 35.2172Z" />
<path d="M23.4805 36C23.3097 36 23.1519 35.9645 23.0072 35.8934C22.8645 35.8197 22.7399 35.7158 22.6334 35.582C22.5289 35.4481 22.4475 35.2896 22.3893 35.1066C22.331 34.9235 22.3018 34.7213 22.3018 34.5C22.3018 34.2787 22.331 34.0765 22.3893 33.8934C22.4475 33.7104 22.5299 33.5519 22.6364 33.418C22.7429 33.2842 22.8686 33.1817 23.0132 33.1107C23.1599 33.0369 23.3207 33 23.4956 33C23.7046 33 23.8904 33.0478 24.0532 33.1434C24.218 33.2391 24.3537 33.3757 24.4602 33.5533L24.005 34.0984C23.9387 33.9945 23.8663 33.9167 23.788 33.8648C23.7116 33.8101 23.6262 33.7828 23.5317 33.7828C23.4534 33.7828 23.382 33.7992 23.3177 33.832C23.2554 33.8648 23.2021 33.9126 23.1579 33.9754C23.1137 34.0383 23.0796 34.1134 23.0554 34.2008C23.0313 34.2883 23.0193 34.388 23.0193 34.5C23.0193 34.6066 23.0313 34.7049 23.0554 34.7951C23.0796 34.8825 23.1137 34.9577 23.1579 35.0205C23.2021 35.0833 23.2544 35.1325 23.3147 35.168C23.377 35.2008 23.4463 35.2172 23.5227 35.2172C23.6031 35.2172 23.6814 35.1995 23.7578 35.1639C23.8342 35.1257 23.9156 35.0615 24.002 34.9713L24.3999 35.6352C24.2713 35.7527 24.1246 35.8429 23.9598 35.9057C23.795 35.9686 23.6352 36 23.4805 36ZM23.7819 35.5123V34.4221H24.3999V35.6352L23.7819 35.5123Z" />
<path d="M25.8123 36C25.6395 36 25.4797 35.9631 25.333 35.8893C25.1883 35.8156 25.0627 35.7117 24.9562 35.5779C24.8497 35.4413 24.7663 35.2814 24.706 35.0984C24.6477 34.9153 24.6186 34.7158 24.6186 34.5C24.6186 34.2814 24.6477 34.082 24.706 33.9016C24.7663 33.7186 24.8497 33.5601 24.9562 33.4262C25.0627 33.2896 25.1883 33.1844 25.333 33.1107C25.4797 33.0369 25.6385 33 25.8093 33C25.9821 33 26.1409 33.0369 26.2856 33.1107C26.4303 33.1844 26.5559 33.2896 26.6624 33.4262C26.7689 33.5601 26.8513 33.7186 26.9096 33.9016C26.9699 34.082 27 34.2814 27 34.5C27 34.7158 26.9699 34.9153 26.9096 35.0984C26.8513 35.2814 26.7689 35.4413 26.6624 35.5779C26.5559 35.7117 26.4303 35.8156 26.2856 35.8893C26.1409 35.9631 25.9831 36 25.8123 36ZM25.8093 35.2172C25.8756 35.2172 25.9369 35.2008 25.9932 35.168C26.0515 35.1352 26.1017 35.0888 26.1439 35.0287C26.1881 34.9658 26.2223 34.8907 26.2464 34.8033C26.2705 34.7131 26.2826 34.612 26.2826 34.5C26.2826 34.388 26.2705 34.2883 26.2464 34.2008C26.2223 34.1107 26.1881 34.0355 26.1439 33.9754C26.1017 33.9126 26.0515 33.8648 25.9932 33.832C25.9369 33.7992 25.8756 33.7828 25.8093 33.7828C25.743 33.7828 25.6807 33.7992 25.6224 33.832C25.5661 33.8648 25.5159 33.9126 25.4717 33.9754C25.4295 34.0355 25.3963 34.1107 25.3722 34.2008C25.3481 34.2883 25.336 34.388 25.336 34.5C25.336 34.612 25.3481 34.7131 25.3722 34.8033C25.3963 34.8907 25.4295 34.9658 25.4717 35.0287C25.5159 35.0888 25.5661 35.1352 25.6224 35.168C25.6807 35.2008 25.743 35.2172 25.8093 35.2172Z"/>
</g>
<defs>
<clipPath id="clip0_146_994">
<rect width="49" height="49"/>
</clipPath>
</defs>
</svg>
