<svg width="47" height="47" viewBox="0 0 47 47" xmlns="http://www.w3.org/2000/svg">
<path fill-rule="evenodd" clip-rule="evenodd" d="M17.5889 3.33635C16.9057 2.95812 16.0452 3.20535 15.667 3.88858C15.2887 4.57181 15.536 5.4323 16.2192 5.81054L16.5946 6.01837L4.53938 28.2535C1.76323 33.374 3.67947 39.7644 8.81177 42.5272C13.9412 45.2884 20.3486 43.3844 23.1232 38.2669L35.1848 16.0199L35.5533 16.2183C36.2409 16.5886 37.0984 16.3314 37.4688 15.6439C37.8391 14.9563 37.5819 14.0987 36.8943 13.7284L35.2845 12.8613L19.1826 4.2186L17.5889 3.33635ZM7.02552 29.6015L19.0776 7.37198L32.6941 14.6806L29.9962 19.6565L26.3382 17.6874C25.6507 17.3173 24.7932 17.5746 24.4229 18.2623C24.0527 18.9499 24.3101 19.8074 24.9977 20.1776L28.6484 22.1426L26.9248 25.3216L20.1164 21.6565C19.4286 21.2863 18.5712 21.5437 18.201 22.2315C17.8309 22.9191 18.0883 23.7766 18.7759 24.1468L25.5768 27.8077L23.9893 30.7357L20.2268 28.7103C19.5391 28.3403 18.6816 28.5975 18.3114 29.2852C17.9412 29.9728 18.1986 30.8303 18.8862 31.2005L22.6415 33.222L20.637 36.9189C18.6076 40.6624 13.9133 42.0617 10.1523 40.0372C6.39407 38.0141 4.9976 33.3419 7.02552 29.6015Z"/>
<path fill-rule="evenodd" clip-rule="evenodd" d="M40.5525 22.9565C39.3049 21.7124 37.298 21.7692 36.1227 23.0818C35.5605 23.7098 34.8762 24.5415 34.3295 25.4229C33.8164 26.2499 33.2736 27.3547 33.3052 28.4711C33.387 31.3653 35.7226 33.7467 38.6389 33.6641C41.5549 33.5816 43.7524 31.0721 43.6705 28.1779C43.6389 27.0614 43.0344 25.9891 42.4753 25.1924C41.8798 24.3433 41.1495 23.5516 40.5525 22.9565ZM38.2295 24.9683C38.2831 24.9085 38.3404 24.8888 38.3906 24.8874C38.4405 24.8859 38.4989 24.9024 38.5557 24.9591C39.0965 25.4981 39.6983 26.1582 40.1602 26.8164C40.6586 27.5269 40.8368 28.0176 40.8436 28.2578C40.8844 29.7005 39.8061 30.802 38.5589 30.8372C37.3117 30.8725 36.1729 29.8338 36.1321 28.3911C36.1253 28.1509 36.2754 27.6509 36.7327 26.9134C37.1566 26.2301 37.7203 25.537 38.2295 24.9683Z"/>
</svg>
