<svg width="30" height="30" viewBox="0 0 30 30" fill="none" xmlns="http://www.w3.org/2000/svg">
<path d="M15 1.875C7.78125 1.875 1.875 7.78125 1.875 15C1.875 22.2188 7.78125 28.125 15 28.125C22.2188 28.125 28.125 22.2188 28.125 15C28.125 7.78125 22.2188 1.875 15 1.875ZM21.5625 15.9375H15C14.4375 15.9375 14.0625 15.5625 14.0625 15V6.5625C14.0625 6 14.4375 5.625 15 5.625C15.5625 5.625 15.9375 6 15.9375 6.5625V14.0625H21.5625C22.125 14.0625 22.5 14.4375 22.5 15C22.5 15.5625 22.125 15.9375 21.5625 15.9375Z" fill="#262626"/>
</svg>
