<svg width="207" height="338" viewBox="0 0 207 338" fill="none" xmlns="http://www.w3.org/2000/svg">
<mask id="path-1-inside-1_215_584" fill="white">
<path d="M75.9102 106.227V34.0922C75.9102 0.729827 136.198 -1.92536 166.342 1.09049V158.524C145.241 107.858 97.2621 101.401 75.9102 106.227Z"/>
</mask>
<path d="M75.9102 106.227H-24.0898V231.348L97.9535 203.767L75.9102 106.227ZM166.342 158.524L74.0276 196.97L266.342 158.524H166.342ZM166.342 1.09049H266.342V-89.4039L176.297 -98.4128L166.342 1.09049ZM-24.0898 34.0922V106.227H175.91V34.0922H-24.0898ZM97.9535 203.767C91.7218 205.175 88.0789 204.924 86.9447 204.819C85.3698 204.675 83.8258 204.329 82.1461 203.616C80.2865 202.827 78.161 201.528 76.2645 199.666C74.2554 197.694 73.7562 196.318 74.0276 196.97L258.656 120.079C214.04 12.9479 109.237 -3.82665 53.8668 8.68665L97.9535 203.767ZM266.342 158.524V1.09049H66.342V158.524H266.342ZM176.297 -98.4128C154.793 -100.564 120.169 -101.259 86.7998 -93.3643C70.4281 -89.4911 45.8184 -81.6211 23.3705 -63.6811C-2.40118 -43.0848 -24.0898 -9.52705 -24.0898 34.0922H175.91C175.91 45.619 173.148 57.9083 167.143 69.3717C161.347 80.4368 154.018 87.9304 148.232 92.5548C138.03 100.708 130.376 101.847 132.844 101.263C134.012 100.987 137.466 100.415 142.992 100.222C148.275 100.037 153.2 100.275 156.387 100.594L176.297 -98.4128Z" fill="#2CC304" mask="url(#path-1-inside-1_215_584)"/>
<mask id="path-3-inside-2_215_584" fill="white">
<path d="M0.833008 126.943C11.0706 131.151 30.7824 132.011 82.7635 123.336C131.392 115.221 151.014 164.814 156.103 196.373C161.79 216.516 179.82 256.622 206.437 255.901V337.954C206.437 336.151 133.273 331.516 103.209 283.853C74.2022 237.867 82.7635 222.539 76.7616 181.05C71.8987 181.517 66.783 182.113 61.4053 182.847C34.9882 186.454 6.83491 157.6 0.833008 126.943Z"/>
</mask>
<path d="M198.672 170.146C185.079 148.082 162.327 138.21 143.189 133.815C123.203 129.226 99.3105 128.652 71.9786 131.279L81.5446 230.82C102.966 228.762 115.124 229.973 120.81 231.279C127.344 232.78 119.886 232.911 113.533 222.6L198.672 170.146ZM0.833008 126.943L38.8491 34.4511L-133.001 -36.1829L-97.304 146.156L0.833008 126.943ZM82.7635 123.336L99.2238 221.972L82.7635 123.336ZM156.103 196.373L57.3779 212.292L58.2968 217.99L59.8653 223.546L156.103 196.373ZM61.4053 182.847L47.8777 83.7666H47.8777L61.4053 182.847ZM206.437 255.901H306.437V153.154L203.728 155.938L206.437 255.901ZM103.209 283.853L18.6289 337.204L18.6289 337.204L103.209 283.853ZM76.7616 181.05L175.731 166.733L162.083 72.3896L67.1956 81.5083L76.7616 181.05ZM-37.1831 219.435C-13.4833 229.176 10.0256 230.443 28.8459 229.934C48.3058 229.408 71.4502 226.607 99.2238 221.972L66.3032 24.7004C42.0957 28.7401 29.3937 29.8464 23.4429 30.0072C16.8527 30.1853 25.3868 28.9179 38.8491 34.4511L-37.1831 219.435ZM99.2238 221.972C92.9586 223.018 82.9676 222.641 72.465 217.843C62.8785 213.463 57.7985 207.667 56.0702 205.388C54.4767 203.286 54.6832 202.867 55.5475 205.203C56.3409 207.348 57.0064 209.988 57.3779 212.292L254.827 180.454C250.877 155.955 240.69 117.86 215.451 84.566C186.292 46.1016 134.669 13.2916 66.3032 24.7004L99.2238 221.972ZM47.8777 83.7666C75.5988 79.9818 90.8805 93.851 92.5389 95.4353C95.4081 98.1762 97.7488 101.493 98.97 107.73L-97.304 146.156C-90.0809 183.051 -70.6626 216.123 -45.612 240.053C-21.7722 262.827 20.7946 289.32 74.9328 281.928L47.8777 83.7666ZM59.8653 223.546C64.7885 240.982 74.6535 266.766 90.9651 290.538C103.822 309.276 142.112 357.681 209.146 355.864L203.728 155.938C224.003 155.388 238.896 163.059 246.547 168.564C250.246 171.226 252.637 173.608 253.896 174.977C255.181 176.373 255.799 177.269 255.877 177.384C255.919 177.444 255.164 176.284 254.103 173.881C253.072 171.546 252.475 169.677 252.34 169.2L59.8653 223.546ZM106.437 255.901V337.954H306.437V255.901H106.437ZM306.437 337.954C306.437 293.612 278.854 268.161 270.801 261.379C260.554 252.749 250.968 248.261 247.482 246.682C239.575 243.101 232.866 241.346 231.339 240.94C226.898 239.757 222.838 239.003 221.954 238.834C216.354 237.767 218.448 238.224 213.723 237.301C208.634 236.306 203.119 235.03 197.69 233.222C183.81 228.601 184.499 225.287 187.788 230.503L18.6289 337.204C51.9829 390.082 104.286 412.917 134.504 422.979C151.124 428.513 165.779 431.714 175.348 433.585C177.744 434.053 179.845 434.442 181.464 434.738C183.384 435.09 183.95 435.191 184.516 435.299C185.691 435.523 183.232 435.099 179.877 434.206C178.894 433.944 172.6 432.324 164.971 428.869C161.624 427.353 152.144 422.926 141.967 414.355C133.985 407.633 106.437 382.24 106.437 337.954H306.437ZM67.1956 81.5083C60.9244 82.111 54.4855 82.8644 47.8777 83.7666L74.9328 281.928C79.0804 281.362 82.8729 280.923 86.3276 280.591L67.1956 81.5083ZM187.788 230.503C183.018 222.94 181.279 218.979 180.72 217.561C180.356 216.639 180.333 216.465 180.232 215.795C179.918 213.722 179.739 211.391 179.156 201.971C178.632 193.506 177.849 181.369 175.731 166.733L-22.2082 195.367C-21.3246 201.475 -20.9272 206.813 -20.462 214.328C-20.0559 220.887 -19.4365 233.042 -17.5147 245.735C-12.8457 276.573 -1.80092 304.815 18.6289 337.204L187.788 230.503Z" fill="#1CA4C4" mask="url(#path-3-inside-2_215_584)"/>
<mask id="path-5-inside-3_215_584" fill="white">
<path d="M82.7635 123.336C30.7824 132.011 11.0706 131.151 0.833008 126.943C6.83491 157.6 34.9882 186.454 61.4053 182.847C66.783 182.113 71.8987 181.517 76.7616 181.05C125.515 176.365 148.862 184.621 156.103 196.373C151.014 164.814 131.392 115.221 82.7635 123.336Z"/>
</mask>
<path d="M0.833008 126.943L38.8491 34.4511L-133.001 -36.1829L-97.304 146.156L0.833008 126.943ZM82.7635 123.336L99.2238 221.972L82.7635 123.336ZM156.103 196.373L70.9641 248.827L254.827 180.454L156.103 196.373ZM61.4053 182.847L47.8778 83.7666L47.8777 83.7666L61.4053 182.847ZM76.7616 181.05L86.3276 280.591H86.3276L76.7616 181.05ZM-37.1831 219.435C-13.4833 229.176 10.0256 230.443 28.8459 229.934C48.3058 229.408 71.4502 226.607 99.2238 221.972L66.3032 24.7004C42.0957 28.7401 29.3937 29.8464 23.4429 30.0072C16.8527 30.1853 25.3868 28.9179 38.8491 34.4511L-37.1831 219.435ZM99.2238 221.972C92.9586 223.018 82.9676 222.641 72.465 217.843C62.8785 213.463 57.7985 207.667 56.0702 205.388C54.4767 203.286 54.6832 202.867 55.5475 205.203C56.3409 207.348 57.0064 209.988 57.3779 212.292L254.827 180.454C250.877 155.955 240.69 117.86 215.451 84.566C186.292 46.1016 134.669 13.2916 66.3032 24.7004L99.2238 221.972ZM47.8777 83.7666C75.5988 79.9818 90.8805 93.851 92.5389 95.4354C95.4081 98.1762 97.7488 101.493 98.97 107.73L-97.304 146.156C-90.0809 183.051 -70.6626 216.123 -45.612 240.053C-21.7722 262.827 20.7947 289.32 74.9328 281.928L47.8777 83.7666ZM241.241 143.919C217.675 105.667 179.818 90.9249 154.379 85.0836C127.243 78.8528 97.4829 78.5977 67.1956 81.5084L86.3276 280.591C104.794 278.817 111.084 280.347 109.62 280.011C108.597 279.776 103.486 278.518 96.5018 274.376C89.3001 270.106 79.1824 262.166 70.9641 248.827L241.241 143.919ZM67.1956 81.5084C60.9244 82.111 54.4855 82.8644 47.8778 83.7666L74.9328 281.928C79.0804 281.362 82.8729 280.923 86.3276 280.591L67.1956 81.5084Z" fill="#2CC304" mask="url(#path-5-inside-3_215_584)"/>
<path d="M94.7641 174.905C76.6624 179.844 76.0486 178.667 76.7601 185.576C77.2365 190.206 77.6133 191.887 81.2672 191.111C83.9666 190.957 91.112 189.259 97.1459 187.561C115.883 181.851 145.735 184.899 150.339 191.998C151.292 193.387 150.903 192.792 150.903 191.403C150.903 188.471 140.653 181.233 131.126 177.375C118.741 172.436 107.149 171.664 94.7641 174.905Z" fill="#202020"/>
</svg>
