<svg width="47" height="43" viewBox="0 0 47 43" fill="none" xmlns="http://www.w3.org/2000/svg">
<mask id="path-1-inside-1_146_1040" fill="white">
<path d="M10.1721 13.3208V4.37464C10.1721 0.23703 17.649 -0.0922675 21.3875 0.281759V19.8067C18.7706 13.5231 12.8202 12.7223 10.1721 13.3208Z"/>
</mask>
<path d="M10.1721 13.3208H-89.8279V138.442L32.2154 110.861L10.1721 13.3208ZM21.3875 19.8067L-70.9268 58.2523L121.387 19.8067H21.3875ZM21.3875 0.281759H121.387V-90.2126L31.3426 -99.2215L21.3875 0.281759ZM-89.8279 4.37464V13.3208H110.172V4.37464H-89.8279ZM32.2154 110.861C12.8365 115.24 -6.3802 113.208 -23.2827 106.033C-43.4962 97.4526 -61.4868 80.9193 -70.9268 58.2523L113.702 -18.6389C87.5695 -81.3869 24.7955 -92.5058 -11.8712 -84.2194L32.2154 110.861ZM121.387 19.8067V0.281759H-78.6125V19.8067H121.387ZM31.3426 -99.2215C23.0413 -100.052 8.22149 -100.668 -8.64441 -96.6775C-16.7644 -94.7564 -33.9476 -89.8344 -51.0318 -76.181C-71.4399 -59.8712 -89.8279 -31.9384 -89.8279 4.37464H110.172C110.172 38.6189 92.7188 64.9589 73.8294 80.055C58.2639 92.4946 43.1836 96.5819 37.4002 97.9501C25.2073 100.835 15.9952 100.242 11.4323 99.785L31.3426 -99.2215Z" fill="#2CC304" mask="url(#path-1-inside-1_146_1040)"/>
<mask id="path-3-inside-2_146_1040" fill="white">
<path d="M0.861328 15.89C2.13099 16.4118 4.57565 16.5185 11.0224 15.4427C17.0533 14.4362 19.4868 20.5867 20.1179 24.5006C20.8233 26.9988 23.0593 31.9728 26.3604 31.8833V42.0596C26.3604 41.8359 17.2865 41.2611 13.558 35.35C9.96058 29.6468 11.0224 27.7458 10.278 22.6003C9.6749 22.6582 9.04045 22.7322 8.3735 22.8232C5.09726 23.2705 1.60568 19.6921 0.861328 15.89Z"/>
</mask>
<path d="M62.6872 -1.72635C52.265 -18.6427 36.2118 -24.1333 28.3183 -25.9458C19.5766 -27.9531 11.4735 -27.745 5.49501 -27.1704L15.061 72.371C14.854 72.3909 13.9916 72.4656 12.6096 72.4205C11.277 72.3771 8.93772 72.2064 5.93893 71.5178C1.22927 70.4364 -12.9272 66.1865 -22.4514 50.7276L62.6872 -1.72635ZM0.861328 15.89L38.8774 -76.602L-132.973 -147.236L-97.2757 35.1027L0.861328 15.89ZM11.0224 15.4427L27.4827 114.079L11.0224 15.4427ZM20.1179 24.5006L-78.6069 40.4197L-77.688 46.1184L-76.1195 51.6736L20.1179 24.5006ZM8.3735 22.8232L21.901 121.904H21.901L8.3735 22.8232ZM26.3604 31.8833H126.36V-70.8634L23.6514 -68.08L26.3604 31.8833ZM13.558 35.35L-71.0218 88.7003L-71.0218 88.7003L13.558 35.35ZM10.278 22.6003L109.248 8.28307L95.5999 -86.0599L0.711965 -76.9411L10.278 22.6003ZM-37.1548 108.382C-17.9389 116.28 -0.988827 116.437 6.70192 116.229C15.0322 116.004 22.4763 114.914 27.4827 114.079L-5.43796 -83.1933C-6.87826 -82.953 -3.87988 -83.5581 1.29898 -83.6981C5.83831 -83.8207 20.9312 -83.9783 38.8774 -76.602L-37.1548 108.382ZM27.4827 114.079C10.5681 116.901 -8.48422 115.143 -26.6582 106.839C-43.916 98.954 -55.2774 87.5309 -62.0952 78.5373C-74.2732 62.4729 -77.5166 47.1814 -78.6069 40.4197L118.843 8.58161C117.121 -2.09406 112.346 -22.4177 97.2853 -42.2843C78.3056 -67.3211 41.6287 -91.0478 -5.43796 -83.1933L27.4827 114.079ZM-5.15401 -76.2576C34.1375 -81.622 61.3697 -62.2239 72.7434 -51.3588C85.3278 -39.3371 95.1484 -22.988 98.9983 -3.32278L-97.2757 35.1027C-92.6814 58.5701 -80.7428 78.6095 -65.4075 93.259C-51.2829 106.752 -20.6667 127.716 21.901 121.904L-5.15401 -76.2576ZM-76.1195 51.6736C-73.6874 60.2871 -69.0163 72.8767 -60.1905 85.7395C-54.8192 93.5676 -26.3068 133.347 29.0694 131.847L23.6514 -68.08C49.7556 -68.7874 70.0067 -59.0394 82.4955 -50.0537C94.2307 -41.6101 101.239 -32.4908 104.722 -27.4148C111.428 -17.6412 114.629 -8.78765 116.355 -2.67233L-76.1195 51.6736ZM-73.6396 31.8833V42.0596H126.36V31.8833H-73.6396ZM126.36 42.0596C126.36 20.008 119.182 2.11482 111.574 -10.2753C104.329 -22.0728 96.1359 -29.921 90.771 -34.4392C80.5545 -43.0435 71.0151 -47.5045 67.5902 -49.0556C59.8045 -52.5818 53.2772 -54.2775 51.9887 -54.6206C49.5945 -55.2581 47.6792 -55.6717 46.8419 -55.8489C45.8633 -56.0561 45.073 -56.2084 44.682 -56.2829C44.2616 -56.363 43.9107 -56.4274 43.7752 -56.4522C43.6965 -56.4666 43.6202 -56.4806 43.5873 -56.4865C43.5431 -56.4946 43.5299 -56.497 43.5216 -56.4986C43.5003 -56.5025 43.7356 -56.4596 44.0716 -56.3939C45.403 -56.1336 48.722 -55.4486 52.9501 -54.0408C56.9901 -52.6955 63.7417 -50.0823 71.4102 -45.1263C79.2187 -40.0798 89.6012 -31.534 98.1377 -18.0004L-71.0218 88.7003C-60.621 105.189 -47.7061 116.024 -37.1476 122.848C-26.729 129.581 -17.0098 133.46 -10.2354 135.716C-3.27271 138.034 2.54785 139.274 5.69706 139.89C6.48756 140.045 7.13462 140.164 7.47532 140.226C8.11694 140.344 7.58023 140.246 7.24449 140.182C6.98115 140.132 6.30435 140.002 5.42417 139.816C4.68527 139.659 2.85333 139.265 0.526499 138.645C-0.694705 138.32 -7.17053 136.641 -14.9217 133.13C-18.3293 131.587 -27.8556 127.134 -38.0634 118.537C-43.4239 114.022 -51.6139 106.178 -58.8564 94.3838C-66.4628 81.9973 -73.6396 64.1077 -73.6396 42.0596H126.36ZM0.711965 -76.9411C-1.29938 -76.7478 -3.25699 -76.5166 -5.15402 -76.2576L21.901 121.904C21.3379 121.981 20.6492 122.064 19.844 122.142L0.711965 -76.9411ZM98.1377 -18.0004C99.7196 -15.4925 102.276 -11.061 104.669 -4.98826C107.258 1.58123 108.843 7.99796 109.721 13.7961C110.387 18.1902 110.557 22.2042 110.408 19.7825C110.317 18.3168 110.051 13.8338 109.248 8.28307L-88.6918 36.9175C-89.1226 33.9395 -89.2423 31.6237 -89.2103 32.1399C-89.2082 32.1744 -89.1744 32.7281 -89.1462 33.1625C-89.1125 33.6829 -89.0582 34.487 -88.9814 35.4384C-88.8271 37.3494 -88.552 40.2557 -88.0251 43.7359C-86.8699 51.3654 -84.8288 59.6483 -81.4039 68.3391C-78.1749 76.533 -74.4024 83.3409 -71.0218 88.7003L98.1377 -18.0004Z" fill="#1CA4C4" mask="url(#path-3-inside-2_146_1040)"/>
<mask id="path-5-inside-3_146_1040" fill="white">
<path d="M11.0224 15.4427C4.57565 16.5185 2.13099 16.4118 0.861328 15.89C1.60568 19.6921 5.09726 23.2705 8.3735 22.8232C9.04045 22.7322 9.6749 22.6582 10.278 22.6003C16.3244 22.0192 19.2199 23.0432 20.1179 24.5006C19.4868 20.5867 17.0533 14.4362 11.0224 15.4427Z"/>
</mask>
<path d="M0.861328 15.89L38.8774 -76.602L-132.973 -147.236L-97.2757 35.1027L0.861328 15.89ZM11.0224 15.4427L-5.43796 -83.1933L11.0224 15.4427ZM20.1179 24.5006L-65.0207 76.9546L118.843 8.58165L20.1179 24.5006ZM8.3735 22.8232L21.901 121.904H21.901L8.3735 22.8232ZM10.278 22.6003L19.8439 122.142L19.844 122.142L10.278 22.6003ZM-37.1548 108.382C-17.9389 116.28 -0.98883 116.437 6.70192 116.229C15.0322 116.004 22.4763 114.914 27.4827 114.079L-5.43796 -83.1933C-6.87826 -82.953 -3.87988 -83.5581 1.29898 -83.6981C5.83831 -83.8207 20.9312 -83.9783 38.8774 -76.602L-37.1548 108.382ZM27.4827 114.079C10.5681 116.901 -8.48421 115.143 -26.6582 106.839C-43.916 98.954 -55.2774 87.5309 -62.0952 78.5373C-74.2732 62.4728 -77.5166 47.1814 -78.6069 40.4196L118.843 8.58165C117.121 -2.09404 112.346 -22.4177 97.2853 -42.2843C78.3056 -67.3211 41.6287 -91.0478 -5.43796 -83.1933L27.4827 114.079ZM-5.15401 -76.2576C34.1375 -81.622 61.3697 -62.2239 72.7435 -51.3588C85.3278 -39.3371 95.1484 -22.988 98.9983 -3.32278L-97.2757 35.1027C-92.6814 58.5701 -80.7428 78.6095 -65.4075 93.259C-51.2829 106.752 -20.6667 127.716 21.901 121.904L-5.15401 -76.2576ZM105.256 -27.9533C84.8611 -61.0573 53.7031 -71.4182 39.5079 -74.6777C23.6165 -78.3266 9.64581 -77.7997 0.712007 -76.9411L19.844 122.142C16.9566 122.419 7.45686 123.168 -5.25074 120.25C-16.262 117.721 -45.5233 108.601 -65.0207 76.9546L105.256 -27.9533ZM0.712059 -76.9411C-1.29941 -76.7478 -3.25706 -76.5166 -5.15402 -76.2576L21.901 121.904C21.3379 121.981 20.6492 122.064 19.8439 122.142L0.712059 -76.9411Z" fill="#2CC304" mask="url(#path-5-inside-3_146_1040)"/>
<path d="M12.5109 21.8377C10.2659 22.4502 10.1898 22.3043 10.278 23.1611C10.3371 23.7353 10.3838 23.9438 10.837 23.8475C11.1718 23.8284 12.0579 23.6179 12.8063 23.4073C15.13 22.6991 18.8322 23.0771 19.4033 23.9576C19.5215 24.1299 19.4733 24.0561 19.4733 23.8838C19.4733 23.5201 18.2021 22.6225 17.0205 22.144C15.4845 21.5315 14.0469 21.4358 12.5109 21.8377Z" fill="#202020"/>
<mask id="path-8-inside-4_146_1040" fill="white">
<path d="M35.5654 24.5565V0.125H46.1459V26.5374C46.1459 38.9733 34.3663 42.3482 29.4287 42.1648V31.8838C33.6609 31.8838 35.3538 28.0816 35.5654 24.5565Z"/>
</mask>
<path d="M35.5654 0.125V-99.875H-64.4346V0.125H35.5654ZM35.5654 24.5565L135.386 30.5486L135.565 27.5553V24.5565H35.5654ZM29.4287 31.8838V-68.1162H-70.5713V31.8838H29.4287ZM29.4287 42.1648H-70.5713V138.519L25.7165 142.096L29.4287 42.1648ZM46.1459 0.125H146.146V-99.875H46.1459V0.125ZM-64.4346 0.125V24.5565H135.565V0.125H-64.4346ZM-64.2549 18.5644C-63.6636 8.71398 -60.8646 -9.40236 -47.7834 -27.9966C-31.7053 -50.8508 -3.80346 -68.1162 29.4287 -68.1162V131.884C66.8931 131.884 97.7574 112.717 115.793 87.0807C130.832 65.7041 134.583 43.9242 135.386 30.5486L-64.2549 18.5644ZM-70.5713 31.8838V42.1648H129.429V31.8838H-70.5713ZM25.7165 142.096C47.4494 142.903 72.6828 137.243 95.1177 122.283C122.76 103.85 146.146 70.4395 146.146 26.5374H-53.8541C-53.8541 13.1739 -50.4979 -1.56987 -42.5413 -15.4583C-34.8307 -28.9173 -24.7793 -38.1548 -15.8399 -44.1158C-0.529158 -54.3253 16.3456 -58.3902 33.1409 -57.7663L25.7165 142.096ZM146.146 26.5374V0.125H-53.8541V26.5374H146.146ZM46.1459 -99.875H35.5654V100.125H46.1459V-99.875Z" fill="#090952" mask="url(#path-8-inside-4_146_1040)"/>
</svg>
