<svg width="136" height="340" viewBox="0 0 136 340" fill="none" xmlns="http://www.w3.org/2000/svg">
<mask id="path-1-inside-1_215_589" fill="white">
<path d="M49.8536 197.338V0.341797H135.167V213.311C135.167 313.584 40.1848 340.797 0.37207 339.318V256.419C34.4973 256.419 48.1474 225.762 49.8536 197.338Z"/>
</mask>
<path d="M49.8536 0.341797V-99.6582H-50.1464V0.341797H49.8536ZM49.8536 197.338L149.674 203.33L149.854 200.337V197.338H49.8536ZM0.37207 256.419V156.419H-99.6279V256.419H0.37207ZM0.37207 339.318H-99.6279V435.672L-3.34012 439.249L0.37207 339.318ZM135.167 0.341797H235.167V-99.6582H135.167V0.341797ZM-50.1464 0.341797V197.338H149.854V0.341797H-50.1464ZM-49.9667 191.346C-50.1227 193.945 -50.6866 188.767 -44.5182 179.999C-40.8983 174.854 -34.7617 168.361 -25.4932 163.324C-15.9559 158.14 -6.61798 156.419 0.37207 156.419V356.419C52.7829 356.419 94.1098 330.539 119.058 295.076C141.009 263.874 148.124 229.155 149.674 203.33L-49.9667 191.346ZM-99.6279 256.419V339.318H100.372V256.419H-99.6279ZM-3.34012 439.249C35.8304 440.704 90.583 429.408 138.178 397.67C190.98 362.461 235.167 301.131 235.167 213.311H35.1667C35.1667 221.907 33.3227 225.122 32.9342 225.8C32.2996 226.908 30.8609 228.844 27.2203 231.272C23.3266 233.868 18.041 236.226 12.1997 237.801C5.91927 239.494 2.59823 239.331 4.08426 239.387L-3.34012 439.249ZM235.167 213.311V0.341797H35.1667V213.311H235.167ZM135.167 -99.6582H49.8536V100.342H135.167V-99.6582Z" fill="#090952" mask="url(#path-1-inside-1_215_589)"/>
</svg>
