<svg width="45" height="45" viewBox="0 0 45 45" fill="none" xmlns="http://www.w3.org/2000/svg">
<path fill-rule="evenodd" clip-rule="evenodd" d="M34.9036 15.7963C35.0835 15.1914 34.9036 14.7461 34.0424 14.7461H31.1987C30.4751 14.7461 30.1414 15.1305 29.9605 15.5548C29.9605 15.5548 28.5143 19.0952 26.4657 21.3949C25.8027 22.0618 25.5016 22.2734 25.1398 22.2734C24.9588 22.2734 24.6869 22.0618 24.6869 21.4559V15.7963C24.6869 15.0696 24.4876 14.7461 23.8853 14.7461H19.4134C18.9616 14.7461 18.6897 15.0829 18.6897 15.403C18.6897 16.0909 19.7145 16.2504 19.8196 18.1868V22.3941C19.8196 23.3169 19.6539 23.4842 19.292 23.4842C18.3279 23.4842 15.9825 19.9271 14.5905 15.8572C14.3207 15.0651 14.0477 14.7461 13.3208 14.7461H10.475C9.6625 14.7461 9.5 15.1305 9.5 15.5548C9.5 16.3103 10.4641 20.0634 13.9903 25.0273C16.3411 28.4171 19.6506 30.2549 22.6655 30.2549C24.4735 30.2549 24.6967 29.8472 24.6967 29.1438V26.5815C24.6967 25.7651 24.8678 25.6022 25.4409 25.6022C25.8634 25.6022 26.586 25.8149 28.2738 27.4489C30.2021 29.3864 30.5195 30.2549 31.605 30.2549H34.4486C35.2611 30.2549 35.6685 29.8472 35.4345 29.0407C35.1766 28.2387 34.2558 27.0745 33.0349 25.6931C32.3719 24.9066 31.3775 24.0591 31.0752 23.6348C30.6538 23.0909 30.7741 22.8483 31.0752 22.3642C31.0752 22.3642 34.5418 17.4612 34.9025 15.7963H34.9036Z" fill="#060643"/>
<rect x="0.5" y="0.5" width="44" height="44" rx="22" stroke="#060643"/>
</svg>
