<svg width="50" height="50" viewBox="0 0 50 50" fill="none" xmlns="http://www.w3.org/2000/svg">
<path d="M25 3.125L6.25 9.375V28.125C6.25 38.4814 14.6436 46.875 25 46.875C35.3564 46.875 43.75 38.4814 43.75 28.125V9.375L25 3.125ZM40.2344 28.125C40.2344 36.5381 33.4131 43.3594 25 43.3594C16.5869 43.3594 9.76562 36.5381 9.76562 28.125V12.0117L25 6.64062L40.2344 12.0117V28.125Z" fill="white"/>
<path d="M18.4764 23.198C18.3134 23.0343 18.1198 22.9045 17.9065 22.8158C17.6933 22.7272 17.4646 22.6816 17.2337 22.6816C17.0027 22.6816 16.7741 22.7272 16.5608 22.8158C16.3476 22.9045 16.1539 23.0343 15.991 23.198C15.8273 23.3609 15.6975 23.5546 15.6088 23.7678C15.5202 23.9811 15.4746 24.2097 15.4746 24.4407C15.4746 24.6716 15.5202 24.9003 15.6088 25.1135C15.6975 25.3268 15.8273 25.5204 15.991 25.6834L22.3094 32.0017L22.4119 32.1042C22.566 32.2586 22.7491 32.3811 22.9506 32.4647C23.1521 32.5483 23.3681 32.5913 23.5862 32.5913C23.8044 32.5913 24.0204 32.5483 24.2219 32.4647C24.4234 32.3811 24.6064 32.2586 24.7605 32.1042L35.6736 21.1912C35.828 21.0371 35.9505 20.854 36.0341 20.6525C36.1177 20.451 36.1607 20.235 36.1607 20.0168C36.1607 19.7987 36.1177 19.5827 36.0341 19.3812C35.9505 19.1797 35.828 18.9966 35.6736 18.8425L35.5369 18.7058C35.3828 18.5514 35.1997 18.4289 34.9982 18.3453C34.7967 18.2618 34.5807 18.2188 34.3626 18.2188C34.1444 18.2188 33.9284 18.2618 33.7269 18.3453C33.5254 18.4289 33.3424 18.5514 33.1883 18.7058L23.5838 28.3054L18.4764 23.198Z" fill="white"/>
</svg>
