<svg width="50" height="50" viewBox="0 0 50 50" fill="none" xmlns="http://www.w3.org/2000/svg">
<path d="M37.9935 12.3344C35.4102 7.95756 31.7428 4.32014 27.3449 1.77285L26.5625 1.32031L25.7801 1.77285C21.3074 4.35412 17.5934 8.06785 15.0118 12.5404C12.4303 17.0129 11.0722 22.0865 11.0742 27.2506C11.0742 27.587 11.0801 27.9287 11.0915 28.2662C11.247 32.842 12.9969 36.6923 16.1521 39.4008C18.5665 41.4735 21.6636 42.7389 25.0004 43.0407V48.4379H28.1254V23.4379H25V39.8957C19.7203 39.2841 14.4655 35.5544 14.2145 28.16C14.2041 27.8577 14.1988 27.5518 14.1988 27.2506C14.2081 22.7916 15.3469 18.4076 17.5089 14.5077C19.6709 10.6079 22.7857 7.31931 26.5625 4.94893C30.3392 7.31936 33.4539 10.6079 35.6159 14.5078C37.7778 18.4076 38.9165 22.7916 38.9258 27.2506C38.9258 27.5518 38.9205 27.8577 38.9102 28.1601C38.7094 34.0754 35.306 37.6451 31.2496 39.1499V42.4572C33.3545 41.8606 35.3065 40.8182 36.973 39.4006C40.1281 36.6921 41.878 32.8418 42.0335 28.2661C42.0449 27.9286 42.0508 27.5869 42.0508 27.2505C42.0536 22.0055 40.6527 16.8553 37.9935 12.3344Z" fill="white"/>
</svg>
