<svg width="50" height="50" viewBox="0 0 50 50" fill="none" xmlns="http://www.w3.org/2000/svg">
<path d="M27.8532 5.30902C26.9551 2.5451 23.0449 2.54507 22.1468 5.30902L18.6076 16.2016H7.15444C4.24829 16.2016 3.03993 19.9205 5.39108 21.6287L14.6569 28.3607L11.1177 39.2533C10.2196 42.0172 13.383 44.3156 15.7342 42.6074L25 35.8754L34.2658 42.6074C36.6169 44.3156 39.7804 42.0172 38.8823 39.2533L35.3431 28.3607L44.6089 21.6287C46.96 19.9205 45.7518 16.2016 42.8456 16.2016H31.3924L27.8532 5.30902ZM35.1186 27.6697C35.1188 27.6702 35.1189 27.6707 35.1191 27.6712L35.1186 27.6697Z" stroke="white" stroke-width="4"/>
</svg>
