<svg width="57" height="57" viewBox="0 0 57 57" fill="none" xmlns="http://www.w3.org/2000/svg">
<path fill-rule="evenodd" clip-rule="evenodd" d="M22.5625 21.375L19 20.1875L22.5625 19L23.75 14.25L24.9375 19L28.5 20.1875L24.9375 21.375L23.75 26.125L22.5625 21.375Z" fill="white"/>
<path fill-rule="evenodd" clip-rule="evenodd" d="M36.4243 15.3182L33.8106 16.625L36.3795 17.9094L37.4062 20.9895L38.433 17.9094L41.0019 16.625L38.3882 15.3182L37.4062 11.9795L36.4243 15.3182ZM34.4375 13.6562L28.5 16.625L34.4375 19.5938L37.4062 28.5L40.375 19.5938L46.3125 16.625L40.375 13.6562L37.4062 3.5625L34.4375 13.6562Z" fill="white"/>
<path fill-rule="evenodd" clip-rule="evenodd" d="M5.9375 30.875C5.9375 30.2191 6.46917 29.6875 7.125 29.6875H14.25C14.9059 29.6875 15.4375 30.2191 15.4375 30.875V31.296C16.888 30.7788 18.3438 30.2468 18.8423 30.0239C19.3333 29.8042 19.904 29.7285 20.3847 29.7013C20.8892 29.6727 21.4136 29.6924 21.8742 29.7273C22.3385 29.7626 22.7602 29.8152 23.0648 29.8586C23.2178 29.8805 23.3428 29.9002 23.4308 29.9148C23.475 29.922 23.5099 29.928 23.5345 29.9324L23.5636 29.9375L23.5721 29.939L23.5761 29.9397C23.5764 29.9397 23.5765 29.9398 23.3628 31.1079L23.5761 29.9397C23.5902 29.9422 23.6043 29.9451 23.6181 29.9482L31.9498 31.7822C31.9835 31.7896 32.0169 31.7985 32.0499 31.8088C32.0497 31.8088 32.05 31.809 32.0499 31.8088L32.0519 31.8096L32.0648 31.8135L32.1235 31.8311C32.177 31.8468 32.258 31.8701 32.3621 31.8984C32.571 31.9553 32.8711 32.0317 33.2287 32.1083C33.9543 32.2637 34.8719 32.4095 35.7302 32.4095C36.4878 32.4095 37.2714 32.6842 37.694 33.4434C38.0606 34.1023 37.976 34.8295 37.8372 35.3362C37.6503 36.0181 37.2469 36.7371 36.7405 37.3249C37.4384 37.0723 38.2118 36.7612 39.0479 36.4247L39.1235 36.3943C41.164 35.5728 43.5716 34.6034 45.6942 34.2589C48.096 33.869 49.8375 34.7206 50.6311 36.2406C51.3431 37.6043 51.1736 39.3915 50.1115 40.4603C49.8463 40.7272 49.4395 41.0095 49.0261 41.2726C48.5857 41.5529 48.0427 41.8699 47.4384 42.2062C46.2282 42.8798 44.7293 43.6544 43.2241 44.4036C40.2412 45.8881 37.1196 47.329 36.1318 47.6841C34.4496 48.2886 32.4898 48.0946 30.6711 47.9146C30.6179 47.9093 30.5647 47.9041 30.5117 47.8989C29.9704 47.8454 29.4279 47.792 28.8726 47.7507C26.4619 47.5715 24.6147 46.9954 22.9015 46.4609L22.8726 46.4519C21.0298 45.8772 19.3383 45.3537 17.0671 45.2639C16.7638 45.2519 16.155 45.2605 15.4375 45.2795V46.9062C15.4375 47.5621 14.9059 48.0938 14.25 48.0938H7.125C6.46917 48.0938 5.9375 47.5621 5.9375 46.9062V30.875ZM26.2268 37.9202L26.0176 39.0891C25.4095 38.9803 24.9863 38.4232 25.0446 37.8082C25.1029 37.1931 25.623 36.7255 26.2409 36.7327L32.9671 36.8126C32.9722 36.8126 32.9773 36.8127 32.9823 36.8129C32.9882 36.8126 33 36.812 33.0176 36.8105C33.0675 36.8061 33.1638 36.7939 33.2985 36.7595C33.5654 36.6916 33.9969 36.5338 34.5279 36.1616C34.7167 36.0295 34.9414 35.8026 35.1442 35.5135C35.3252 35.2553 35.4547 34.9957 35.5244 34.7823C34.499 34.7618 33.485 34.592 32.7314 34.4306C32.3242 34.3434 31.9816 34.2562 31.7388 34.1901C31.6173 34.1571 31.5202 34.1292 31.4521 34.1092C31.429 34.1024 31.409 34.0964 31.3928 34.0915L23.1311 32.2728L23.1262 32.272C23.1083 32.2689 23.0806 32.2641 23.044 32.2581C22.9709 32.246 22.8631 32.2289 22.7292 32.2098C22.4601 32.1714 22.0926 32.1257 21.6944 32.0955C21.2926 32.065 20.8814 32.0519 20.5192 32.0725C20.1335 32.0943 19.9067 32.1495 19.8119 32.1919C19.0109 32.5502 16.3861 33.4839 14.6435 34.0961C14.2803 34.2236 13.8776 34.1672 13.5634 33.9446C13.2492 33.7219 13.0625 33.3607 13.0625 32.9757V32.0625H8.3125V45.7188H13.0625V44.128C13.0625 43.488 13.5696 42.9632 14.2092 42.9412C15.3444 42.9021 16.596 42.8685 17.1609 42.8908C19.7611 42.9936 21.7108 43.6018 23.548 44.1748L23.5797 44.1847C25.3003 44.7214 26.9231 45.2243 29.0487 45.3822C29.6348 45.4258 30.2032 45.4818 30.7389 45.5347L30.7449 45.5353C32.778 45.7359 34.2055 45.8526 35.3286 45.449C36.1633 45.149 39.1603 43.7732 42.1659 42.2774C43.6548 41.5364 45.1178 40.7798 46.2833 40.1311C46.8669 39.8062 47.3653 39.5143 47.7509 39.269C48.1632 39.0066 48.3668 38.8467 48.4268 38.7861C48.6667 38.5449 48.8226 37.9086 48.5258 37.3399C48.3105 36.9276 47.7086 36.338 46.0748 36.6033C44.2409 36.9008 42.0655 37.7701 39.9348 38.6278L39.9096 38.638C38.854 39.0629 37.8069 39.4845 36.8811 39.7898C35.9843 40.0856 35.0342 40.3324 34.228 40.2846C33.0518 40.215 30.9739 39.9096 29.2452 39.6332C28.3688 39.493 27.5626 39.3572 26.9757 39.2563C26.6821 39.2059 26.4431 39.1641 26.2774 39.135L26.0857 39.1012L26.019 39.0893C26.019 39.0893 26.0176 39.0891 26.2268 37.9202Z" fill="white"/>
</svg>
